<svg width="28" height="28" viewBox="0 0 28 28" fill="none" xmlns="http://www.w3.org/2000/svg">
<path d="M19.8333 3.50008H24.3334C24.6428 3.50008 24.9395 3.623 25.1583 3.84179C25.3771 4.06058 25.5 4.35733 25.5 4.66675V23.3334C25.5 23.6428 25.3771 23.9396 25.1583 24.1584C24.9395 24.3772 24.6428 24.5001 24.3334 24.5001H3.66654C3.35713 24.5001 3.06038 24.3772 2.84159 24.1584C2.62279 23.9396 2.49988 23.6428 2.49988 23.3334V4.66675C2.49988 4.35733 2.62279 4.06058 2.84159 3.84179C3.06038 3.623 3.35713 3.50008 3.66654 3.50008H8.16662V2.16675C8.16662 1.61446 8.61433 1.16675 9.16662 1.16675H9.49995C10.0522 1.16675 10.5 1.61446 10.5 2.16675V3.50008H17.5V2.16675C17.5 1.61446 17.9477 1.16675 18.5 1.16675H18.8333C19.3856 1.16675 19.8333 1.61446 19.8333 2.16675V3.50008ZM4.50003 10.0001V22.5001H23.5V10.0001H4.50003ZM6.99993 16.1667C6.99994 15.6144 7.44765 15.1667 7.99993 15.1667H11.8333C12.3856 15.1667 12.8333 15.6145 12.8333 16.1667V17.5001C12.8333 18.0524 12.3856 18.5001 11.8333 18.5001H7.9999C7.44761 18.5001 6.99989 18.0524 6.9999 17.5001L6.99993 16.1667Z" fill="#4589FF"/>
</svg>
