<svg width="334" height="82" viewBox="0 0 334 82" fill="none" xmlns="http://www.w3.org/2000/svg">
<g filter="url(#filter0_d_748_4431)">
<rect x="4" y="4" width="326" height="74" rx="20" fill="#4589FF" shape-rendering="crispEdges"/>
<path d="M30.2651 35.0298C29.3592 35.0298 28.5431 35.187 27.8169 35.5015C27.0981 35.8084 26.4842 36.2576 25.9751 36.8491C25.4735 37.4331 25.0879 38.1406 24.8184 38.9717C24.5488 39.8027 24.4141 40.7386 24.4141 41.7793C24.4141 43.1569 24.6274 44.3548 25.0542 45.373C25.4884 46.3838 26.1323 47.1662 26.9858 47.7202C27.8468 48.2743 28.9212 48.5513 30.209 48.5513C30.9427 48.5513 31.6315 48.4914 32.2754 48.3716C32.9268 48.2443 33.5594 48.0871 34.1733 47.8999V49.562C33.5744 49.7866 32.9455 49.9513 32.2866 50.0562C31.6278 50.1685 30.8454 50.2246 29.9395 50.2246C28.2699 50.2246 26.8735 49.8802 25.7505 49.1914C24.6349 48.4951 23.7964 47.5143 23.2349 46.249C22.6808 44.9837 22.4038 43.4901 22.4038 41.7681C22.4038 40.5252 22.576 39.391 22.9204 38.3652C23.2723 37.332 23.7814 36.4411 24.4478 35.6924C25.1216 34.9437 25.9451 34.3672 26.9185 33.9629C27.8993 33.5511 29.0223 33.3452 30.2876 33.3452C31.1187 33.3452 31.9198 33.4276 32.6909 33.5923C33.4621 33.757 34.1584 33.9928 34.7798 34.2998L34.0161 35.917C33.492 35.6774 32.9155 35.4715 32.2866 35.2993C31.6652 35.1196 30.9914 35.0298 30.2651 35.0298ZM48.0654 43.8232C48.0654 44.834 47.9344 45.7362 47.6724 46.5298C47.4103 47.3234 47.0322 47.9935 46.5381 48.54C46.0439 49.0866 45.445 49.5059 44.7412 49.7979C44.0449 50.0824 43.255 50.2246 42.3716 50.2246C41.548 50.2246 40.7918 50.0824 40.103 49.7979C39.4217 49.5059 38.8302 49.0866 38.3286 48.54C37.8345 47.9935 37.4489 47.3234 37.1719 46.5298C36.9023 45.7362 36.7676 44.834 36.7676 43.8232C36.7676 42.4756 36.9959 41.3301 37.4526 40.3867C37.9093 39.4359 38.5607 38.7134 39.4067 38.2192C40.2603 37.7176 41.2747 37.4668 42.4502 37.4668C43.5732 37.4668 44.554 37.7176 45.3926 38.2192C46.2386 38.7209 46.8937 39.4471 47.3579 40.3979C47.8296 41.3413 48.0654 42.4831 48.0654 43.8232ZM38.6992 43.8232C38.6992 44.8115 38.8302 45.6688 39.0923 46.395C39.3543 47.1213 39.7586 47.6828 40.3052 48.0796C40.8517 48.4764 41.5555 48.6748 42.4165 48.6748C43.27 48.6748 43.9701 48.4764 44.5166 48.0796C45.0706 47.6828 45.4787 47.1213 45.7407 46.395C46.0028 45.6688 46.1338 44.8115 46.1338 43.8232C46.1338 42.8424 46.0028 41.9964 45.7407 41.2852C45.4787 40.5664 45.0744 40.0124 44.5278 39.623C43.9813 39.2337 43.2738 39.0391 42.4053 39.0391C41.125 39.0391 40.1854 39.4621 39.5864 40.3081C38.995 41.1541 38.6992 42.3258 38.6992 43.8232ZM57.1172 37.4668C58.5771 37.4668 59.6815 37.8262 60.4302 38.5449C61.1789 39.2562 61.5532 40.4017 61.5532 41.9814V50H59.7114V42.105C59.7114 41.0793 59.4756 40.3118 59.0039 39.8027C58.5397 39.2936 57.8247 39.0391 56.8589 39.0391C55.4963 39.0391 54.5379 39.4246 53.9839 40.1958C53.4299 40.967 53.1528 42.0863 53.1528 43.5537V50H51.2886V37.6914H52.7935L53.0742 39.4658H53.1753C53.4373 39.0316 53.7705 38.6685 54.1748 38.3765C54.5791 38.077 55.0321 37.8524 55.5337 37.7026C56.0353 37.5454 56.5632 37.4668 57.1172 37.4668ZM69.3696 48.6973C69.6766 48.6973 69.991 48.6711 70.313 48.6187C70.6349 48.5662 70.897 48.5026 71.0991 48.4277V49.8765C70.882 49.9738 70.5788 50.0562 70.1895 50.1235C69.8076 50.1909 69.4333 50.2246 69.0664 50.2246C68.415 50.2246 67.8236 50.1123 67.292 49.8877C66.7604 49.6556 66.3337 49.2663 66.0117 48.7197C65.6973 48.1732 65.54 47.417 65.54 46.4512V39.1514H63.7881V38.2417L65.5513 37.5117L66.2925 34.8389H67.4155V37.6914H71.0205V39.1514H67.4155V46.395C67.4155 47.1662 67.5915 47.7427 67.9434 48.1245C68.3027 48.5063 68.7782 48.6973 69.3696 48.6973ZM78.1968 37.4893C79.6642 37.4893 80.7536 37.8187 81.4648 38.4775C82.1761 39.1364 82.5317 40.1883 82.5317 41.6333V50H81.1729L80.8135 48.1807H80.7236C80.3792 48.6299 80.0199 49.008 79.6455 49.3149C79.2712 49.6144 78.8369 49.8428 78.3428 50C77.8561 50.1497 77.2572 50.2246 76.5459 50.2246C75.7972 50.2246 75.1309 50.0936 74.5469 49.8315C73.9704 49.5695 73.5137 49.1727 73.1768 48.6411C72.8473 48.1095 72.6826 47.4357 72.6826 46.6196C72.6826 45.3918 73.1693 44.4484 74.1426 43.7896C75.1159 43.1307 76.5983 42.7713 78.5898 42.7114L80.7124 42.6216V41.8691C80.7124 40.806 80.484 40.061 80.0273 39.6343C79.5706 39.2075 78.9268 38.9941 78.0957 38.9941C77.4518 38.9941 76.8379 39.0877 76.2539 39.2749C75.6699 39.4621 75.1159 39.6829 74.5918 39.9375L74.019 38.5225C74.5731 38.238 75.2095 37.9946 75.9282 37.7925C76.647 37.5903 77.4032 37.4893 78.1968 37.4893ZM80.6899 43.9355L78.8145 44.0142C77.2796 44.0741 76.1978 44.3249 75.5688 44.7666C74.9399 45.2083 74.6255 45.8335 74.6255 46.6421C74.6255 47.3459 74.8389 47.8662 75.2656 48.2031C75.6924 48.54 76.2576 48.7085 76.9614 48.7085C78.0545 48.7085 78.9492 48.4053 79.6455 47.7988C80.3418 47.1924 80.6899 46.2827 80.6899 45.0698V43.9355ZM91.3027 50.2246C90.1947 50.2246 89.2176 49.9963 88.3716 49.5396C87.5256 49.0828 86.8667 48.3866 86.395 47.4507C85.9233 46.5148 85.6875 45.3356 85.6875 43.9131C85.6875 42.4232 85.9346 41.2065 86.4287 40.2632C86.9303 39.3123 87.6191 38.6086 88.4951 38.1519C89.3711 37.6951 90.3669 37.4668 91.4824 37.4668C92.0964 37.4668 92.6878 37.5304 93.2568 37.6577C93.8333 37.7775 94.305 37.931 94.6719 38.1182L94.1104 39.6792C93.736 39.5295 93.3018 39.3947 92.8076 39.2749C92.321 39.1551 91.8643 39.0952 91.4375 39.0952C90.584 39.0952 89.8727 39.2786 89.3037 39.6455C88.7422 40.0124 88.3192 40.5514 88.0347 41.2627C87.7576 41.974 87.6191 42.8499 87.6191 43.8906C87.6191 44.8864 87.7539 45.7362 88.0234 46.4399C88.3005 47.1437 88.7085 47.6828 89.2476 48.0571C89.7941 48.424 90.4754 48.6074 91.2915 48.6074C91.9429 48.6074 92.5306 48.54 93.0547 48.4053C93.5788 48.263 94.0542 48.0983 94.481 47.9111V49.5732C94.0692 49.7829 93.6087 49.9438 93.0996 50.0562C92.598 50.1685 91.999 50.2246 91.3027 50.2246ZM101.376 48.6973C101.683 48.6973 101.998 48.6711 102.32 48.6187C102.642 48.5662 102.904 48.5026 103.106 48.4277V49.8765C102.889 49.9738 102.586 50.0562 102.196 50.1235C101.814 50.1909 101.44 50.2246 101.073 50.2246C100.422 50.2246 99.8304 50.1123 99.2988 49.8877C98.7673 49.6556 98.3405 49.2663 98.0186 48.7197C97.7041 48.1732 97.5469 47.417 97.5469 46.4512V39.1514H95.7949V38.2417L97.5581 37.5117L98.2993 34.8389H99.4224V37.6914H103.027V39.1514H99.4224V46.395C99.4224 47.1662 99.5983 47.7427 99.9502 48.1245C100.31 48.5063 100.785 48.6973 101.376 48.6973ZM119.536 46.6309C119.536 47.417 119.338 48.0796 118.941 48.6187C118.552 49.1502 117.99 49.5508 117.256 49.8203C116.53 50.0898 115.662 50.2246 114.651 50.2246C113.79 50.2246 113.045 50.1572 112.416 50.0225C111.787 49.8877 111.237 49.6968 110.765 49.4497V47.7314C111.267 47.9785 111.866 48.2031 112.562 48.4053C113.258 48.6074 113.97 48.7085 114.696 48.7085C115.759 48.7085 116.53 48.5363 117.009 48.1919C117.488 47.8475 117.728 47.3796 117.728 46.7881C117.728 46.4512 117.631 46.1554 117.436 45.9009C117.249 45.6388 116.931 45.388 116.481 45.1484C116.032 44.9014 115.411 44.6318 114.617 44.3398C113.831 44.0404 113.15 43.7446 112.573 43.4526C112.004 43.1532 111.562 42.79 111.248 42.3633C110.941 41.9365 110.788 41.3825 110.788 40.7012C110.788 39.6605 111.207 38.8631 112.045 38.3091C112.891 37.7476 114 37.4668 115.37 37.4668C116.111 37.4668 116.803 37.5417 117.447 37.6914C118.099 37.8337 118.705 38.0283 119.267 38.2754L118.638 39.769C118.129 39.5519 117.586 39.3685 117.009 39.2188C116.433 39.069 115.845 38.9941 115.246 38.9941C114.385 38.9941 113.722 39.1364 113.258 39.4209C112.802 39.7054 112.573 40.0947 112.573 40.5889C112.573 40.9707 112.678 41.2852 112.888 41.5322C113.105 41.7793 113.449 42.0114 113.921 42.2285C114.393 42.4456 115.014 42.7002 115.785 42.9922C116.556 43.2767 117.223 43.5724 117.784 43.8794C118.346 44.1789 118.776 44.5457 119.076 44.98C119.383 45.4067 119.536 45.957 119.536 46.6309ZM132.698 37.6914V50H131.171L130.901 48.2705H130.8C130.546 48.6973 130.216 49.0566 129.812 49.3486C129.408 49.6406 128.951 49.8577 128.442 50C127.94 50.1497 127.405 50.2246 126.836 50.2246C125.863 50.2246 125.047 50.0674 124.388 49.7529C123.729 49.4385 123.231 48.9518 122.894 48.293C122.565 47.6341 122.4 46.7881 122.4 45.7549V37.6914H124.287V45.6201C124.287 46.6458 124.519 47.4132 124.983 47.9224C125.447 48.424 126.155 48.6748 127.105 48.6748C128.019 48.6748 128.745 48.5026 129.284 48.1582C129.831 47.8138 130.224 47.3084 130.463 46.6421C130.703 45.9683 130.823 45.1447 130.823 44.1714V37.6914H132.698ZM141.57 50.2246C140.462 50.2246 139.485 49.9963 138.639 49.5396C137.793 49.0828 137.134 48.3866 136.663 47.4507C136.191 46.5148 135.955 45.3356 135.955 43.9131C135.955 42.4232 136.202 41.2065 136.696 40.2632C137.198 39.3123 137.887 38.6086 138.763 38.1519C139.639 37.6951 140.634 37.4668 141.75 37.4668C142.364 37.4668 142.955 37.5304 143.524 37.6577C144.101 37.7775 144.573 37.931 144.939 38.1182L144.378 39.6792C144.004 39.5295 143.569 39.3947 143.075 39.2749C142.589 39.1551 142.132 39.0952 141.705 39.0952C140.852 39.0952 140.14 39.2786 139.571 39.6455C139.01 40.0124 138.587 40.5514 138.302 41.2627C138.025 41.974 137.887 42.8499 137.887 43.8906C137.887 44.8864 138.021 45.7362 138.291 46.4399C138.568 47.1437 138.976 47.6828 139.515 48.0571C140.062 48.424 140.743 48.6074 141.559 48.6074C142.21 48.6074 142.798 48.54 143.322 48.4053C143.846 48.263 144.322 48.0983 144.749 47.9111V49.5732C144.337 49.7829 143.876 49.9438 143.367 50.0562C142.866 50.1685 142.267 50.2246 141.57 50.2246ZM152.599 50.2246C151.491 50.2246 150.514 49.9963 149.667 49.5396C148.821 49.0828 148.163 48.3866 147.691 47.4507C147.219 46.5148 146.983 45.3356 146.983 43.9131C146.983 42.4232 147.23 41.2065 147.725 40.2632C148.226 39.3123 148.915 38.6086 149.791 38.1519C150.667 37.6951 151.663 37.4668 152.778 37.4668C153.392 37.4668 153.984 37.5304 154.553 37.6577C155.129 37.7775 155.601 37.931 155.968 38.1182L155.406 39.6792C155.032 39.5295 154.598 39.3947 154.104 39.2749C153.617 39.1551 153.16 39.0952 152.733 39.0952C151.88 39.0952 151.169 39.2786 150.6 39.6455C150.038 40.0124 149.615 40.5514 149.331 41.2627C149.054 41.974 148.915 42.8499 148.915 43.8906C148.915 44.8864 149.05 45.7362 149.319 46.4399C149.596 47.1437 150.004 47.6828 150.543 48.0571C151.09 48.424 151.771 48.6074 152.587 48.6074C153.239 48.6074 153.826 48.54 154.351 48.4053C154.875 48.263 155.35 48.0983 155.777 47.9111V49.5732C155.365 49.7829 154.905 49.9438 154.396 50.0562C153.894 50.1685 153.295 50.2246 152.599 50.2246ZM163.436 37.4668C164.484 37.4668 165.383 37.6989 166.131 38.1631C166.88 38.6273 167.453 39.2786 167.85 40.1172C168.246 40.9482 168.445 41.9215 168.445 43.0371V44.1938H159.943C159.966 45.6388 160.325 46.7394 161.021 47.4956C161.718 48.2518 162.699 48.6299 163.964 48.6299C164.743 48.6299 165.431 48.5588 166.03 48.4165C166.629 48.2743 167.251 48.0646 167.895 47.7876V49.4272C167.273 49.7043 166.655 49.9064 166.042 50.0337C165.435 50.161 164.716 50.2246 163.885 50.2246C162.702 50.2246 161.669 49.985 160.786 49.5059C159.91 49.0192 159.228 48.3079 158.742 47.3721C158.255 46.4362 158.012 45.2907 158.012 43.9355C158.012 42.6104 158.233 41.4648 158.674 40.499C159.124 39.5257 159.752 38.777 160.561 38.2529C161.377 37.7288 162.335 37.4668 163.436 37.4668ZM163.414 38.9941C162.418 38.9941 161.624 39.3198 161.033 39.9712C160.441 40.6226 160.089 41.5322 159.977 42.7002H166.491C166.483 41.9665 166.367 41.3226 166.143 40.7686C165.925 40.207 165.592 39.7728 165.143 39.4658C164.694 39.1514 164.117 38.9941 163.414 38.9941ZM179.574 46.6309C179.574 47.417 179.376 48.0796 178.979 48.6187C178.59 49.1502 178.028 49.5508 177.294 49.8203C176.568 50.0898 175.7 50.2246 174.689 50.2246C173.828 50.2246 173.083 50.1572 172.454 50.0225C171.825 49.8877 171.275 49.6968 170.803 49.4497V47.7314C171.305 47.9785 171.904 48.2031 172.6 48.4053C173.296 48.6074 174.008 48.7085 174.734 48.7085C175.797 48.7085 176.568 48.5363 177.047 48.1919C177.527 47.8475 177.766 47.3796 177.766 46.7881C177.766 46.4512 177.669 46.1554 177.474 45.9009C177.287 45.6388 176.969 45.388 176.52 45.1484C176.07 44.9014 175.449 44.6318 174.655 44.3398C173.869 44.0404 173.188 43.7446 172.611 43.4526C172.042 43.1532 171.601 42.79 171.286 42.3633C170.979 41.9365 170.826 41.3825 170.826 40.7012C170.826 39.6605 171.245 38.8631 172.083 38.3091C172.93 37.7476 174.038 37.4668 175.408 37.4668C176.149 37.4668 176.841 37.5417 177.485 37.6914C178.137 37.8337 178.743 38.0283 179.305 38.2754L178.676 39.769C178.167 39.5519 177.624 39.3685 177.047 39.2188C176.471 39.069 175.883 38.9941 175.284 38.9941C174.423 38.9941 173.761 39.1364 173.296 39.4209C172.84 39.7054 172.611 40.0947 172.611 40.5889C172.611 40.9707 172.716 41.2852 172.926 41.5322C173.143 41.7793 173.487 42.0114 173.959 42.2285C174.431 42.4456 175.052 42.7002 175.823 42.9922C176.594 43.2767 177.261 43.5724 177.822 43.8794C178.384 44.1789 178.814 44.5457 179.114 44.98C179.421 45.4067 179.574 45.957 179.574 46.6309ZM188.053 39.1514H184.987V50H183.123V39.1514H180.944V38.2529L183.123 37.6353V36.8154C183.123 35.7822 183.277 34.9437 183.583 34.2998C183.89 33.6484 184.336 33.1693 184.92 32.8623C185.504 32.5553 186.215 32.4019 187.054 32.4019C187.525 32.4019 187.956 32.443 188.345 32.5254C188.742 32.6077 189.09 32.7013 189.39 32.8062L188.907 34.2773C188.652 34.195 188.364 34.1201 188.042 34.0527C187.728 33.9779 187.406 33.9404 187.076 33.9404C186.365 33.9404 185.837 34.1725 185.493 34.6367C185.156 35.0934 184.987 35.8122 184.987 36.793V37.6914H188.053V39.1514ZM200.485 37.6914V50H198.958L198.688 48.2705H198.587C198.333 48.6973 198.003 49.0566 197.599 49.3486C197.195 49.6406 196.738 49.8577 196.229 50C195.727 50.1497 195.192 50.2246 194.623 50.2246C193.65 50.2246 192.834 50.0674 192.175 49.7529C191.516 49.4385 191.018 48.9518 190.681 48.293C190.352 47.6341 190.187 46.7881 190.187 45.7549V37.6914H192.074V45.6201C192.074 46.6458 192.306 47.4132 192.77 47.9224C193.234 48.424 193.942 48.6748 194.893 48.6748C195.806 48.6748 196.532 48.5026 197.071 48.1582C197.618 47.8138 198.011 47.3084 198.25 46.6421C198.49 45.9683 198.61 45.1447 198.61 44.1714V37.6914H200.485ZM206.303 50H204.427V32.5254H206.303V50ZM212.12 50H210.245V32.5254H212.12V50ZM214.119 37.6914H216.118L218.836 44.834C218.993 45.2533 219.139 45.6576 219.274 46.0469C219.409 46.4287 219.528 46.7956 219.633 47.1475C219.738 47.4993 219.82 47.84 219.88 48.1694H219.959C220.064 47.7951 220.214 47.3047 220.408 46.6982C220.603 46.0843 220.812 45.4591 221.037 44.8228L223.609 37.6914H225.619L220.262 51.8081C219.978 52.5643 219.645 53.2231 219.263 53.7847C218.888 54.3462 218.432 54.7767 217.893 55.0762C217.354 55.3831 216.702 55.5366 215.938 55.5366C215.587 55.5366 215.276 55.5142 215.006 55.4692C214.737 55.4318 214.505 55.3869 214.31 55.3345V53.8408C214.475 53.8783 214.673 53.9119 214.905 53.9419C215.145 53.9718 215.392 53.9868 215.646 53.9868C216.111 53.9868 216.511 53.897 216.848 53.7173C217.193 53.5451 217.488 53.2905 217.735 52.9536C217.982 52.6167 218.196 52.2161 218.375 51.752L219.049 50.0225L214.119 37.6914ZM238.489 50.2246C237.381 50.2246 236.404 49.9963 235.558 49.5396C234.712 49.0828 234.053 48.3866 233.582 47.4507C233.11 46.5148 232.874 45.3356 232.874 43.9131C232.874 42.4232 233.121 41.2065 233.615 40.2632C234.117 39.3123 234.806 38.6086 235.682 38.1519C236.558 37.6951 237.553 37.4668 238.669 37.4668C239.283 37.4668 239.874 37.5304 240.443 37.6577C241.02 37.7775 241.492 37.931 241.858 38.1182L241.297 39.6792C240.923 39.5295 240.488 39.3947 239.994 39.2749C239.507 39.1551 239.051 39.0952 238.624 39.0952C237.771 39.0952 237.059 39.2786 236.49 39.6455C235.929 40.0124 235.506 40.5514 235.221 41.2627C234.944 41.974 234.806 42.8499 234.806 43.8906C234.806 44.8864 234.94 45.7362 235.21 46.4399C235.487 47.1437 235.895 47.6828 236.434 48.0571C236.981 48.424 237.662 48.6074 238.478 48.6074C239.129 48.6074 239.717 48.54 240.241 48.4053C240.765 48.263 241.241 48.0983 241.667 47.9111V49.5732C241.256 49.7829 240.795 49.9438 240.286 50.0562C239.785 50.1685 239.186 50.2246 238.489 50.2246ZM250.18 37.4668C250.427 37.4668 250.686 37.4818 250.955 37.5117C251.225 37.5342 251.464 37.5679 251.674 37.6128L251.438 39.3423C251.236 39.2899 251.011 39.2487 250.764 39.2188C250.517 39.1888 250.285 39.1738 250.068 39.1738C249.574 39.1738 249.106 39.2749 248.664 39.4771C248.23 39.6717 247.848 39.9562 247.519 40.3306C247.189 40.6974 246.931 41.1429 246.744 41.667C246.556 42.1836 246.463 42.7601 246.463 43.3965V50H244.587V37.6914H246.137L246.339 39.96H246.418C246.673 39.5033 246.979 39.0877 247.339 38.7134C247.698 38.3315 248.114 38.0283 248.585 37.8037C249.065 37.5791 249.596 37.4668 250.18 37.4668ZM258.738 37.4668C259.786 37.4668 260.684 37.6989 261.433 38.1631C262.182 38.6273 262.755 39.2786 263.151 40.1172C263.548 40.9482 263.747 41.9215 263.747 43.0371V44.1938H255.245C255.268 45.6388 255.627 46.7394 256.323 47.4956C257.02 48.2518 258 48.6299 259.266 48.6299C260.044 48.6299 260.733 48.5588 261.332 48.4165C261.931 48.2743 262.552 48.0646 263.196 47.7876V49.4272C262.575 49.7043 261.957 49.9064 261.343 50.0337C260.737 50.161 260.018 50.2246 259.187 50.2246C258.004 50.2246 256.971 49.985 256.087 49.5059C255.211 49.0192 254.53 48.3079 254.043 47.3721C253.557 46.4362 253.313 45.2907 253.313 43.9355C253.313 42.6104 253.534 41.4648 253.976 40.499C254.425 39.5257 255.054 38.777 255.863 38.2529C256.679 37.7288 257.637 37.4668 258.738 37.4668ZM258.715 38.9941C257.72 38.9941 256.926 39.3198 256.334 39.9712C255.743 40.6226 255.391 41.5322 255.279 42.7002H261.792C261.785 41.9665 261.669 41.3226 261.444 40.7686C261.227 40.207 260.894 39.7728 260.445 39.4658C259.996 39.1514 259.419 38.9941 258.715 38.9941ZM271.518 37.4893C272.986 37.4893 274.075 37.8187 274.786 38.4775C275.497 39.1364 275.853 40.1883 275.853 41.6333V50H274.494L274.135 48.1807H274.045C273.701 48.6299 273.341 49.008 272.967 49.3149C272.592 49.6144 272.158 49.8428 271.664 50C271.177 50.1497 270.578 50.2246 269.867 50.2246C269.118 50.2246 268.452 50.0936 267.868 49.8315C267.292 49.5695 266.835 49.1727 266.498 48.6411C266.169 48.1095 266.004 47.4357 266.004 46.6196C266.004 45.3918 266.491 44.4484 267.464 43.7896C268.437 43.1307 269.92 42.7713 271.911 42.7114L274.034 42.6216V41.8691C274.034 40.806 273.805 40.061 273.349 39.6343C272.892 39.2075 272.248 38.9941 271.417 38.9941C270.773 38.9941 270.159 39.0877 269.575 39.2749C268.991 39.4621 268.437 39.6829 267.913 39.9375L267.34 38.5225C267.894 38.238 268.531 37.9946 269.25 37.7925C269.968 37.5903 270.724 37.4893 271.518 37.4893ZM274.011 43.9355L272.136 44.0142C270.601 44.0741 269.519 44.3249 268.89 44.7666C268.261 45.2083 267.947 45.8335 267.947 46.6421C267.947 47.3459 268.16 47.8662 268.587 48.2031C269.014 48.54 269.579 48.7085 270.283 48.7085C271.376 48.7085 272.271 48.4053 272.967 47.7988C273.663 47.1924 274.011 46.2827 274.011 45.0698V43.9355ZM283.669 48.6973C283.976 48.6973 284.291 48.6711 284.613 48.6187C284.935 48.5662 285.197 48.5026 285.399 48.4277V49.8765C285.182 49.9738 284.879 50.0562 284.489 50.1235C284.107 50.1909 283.733 50.2246 283.366 50.2246C282.715 50.2246 282.123 50.1123 281.592 49.8877C281.06 49.6556 280.633 49.2663 280.312 48.7197C279.997 48.1732 279.84 47.417 279.84 46.4512V39.1514H278.088V38.2417L279.851 37.5117L280.592 34.8389H281.715V37.6914H285.32V39.1514H281.715V46.395C281.715 47.1662 281.891 47.7427 282.243 48.1245C282.603 48.5063 283.078 48.6973 283.669 48.6973ZM292.631 37.4668C293.68 37.4668 294.578 37.6989 295.327 38.1631C296.075 38.6273 296.648 39.2786 297.045 40.1172C297.442 40.9482 297.64 41.9215 297.64 43.0371V44.1938H289.139C289.161 45.6388 289.521 46.7394 290.217 47.4956C290.913 48.2518 291.894 48.6299 293.159 48.6299C293.938 48.6299 294.627 48.5588 295.226 48.4165C295.825 48.2743 296.446 48.0646 297.09 47.7876V49.4272C296.468 49.7043 295.851 49.9064 295.237 50.0337C294.63 50.161 293.912 50.2246 293.081 50.2246C291.898 50.2246 290.864 49.985 289.981 49.5059C289.105 49.0192 288.424 48.3079 287.937 47.3721C287.45 46.4362 287.207 45.2907 287.207 43.9355C287.207 42.6104 287.428 41.4648 287.87 40.499C288.319 39.5257 288.948 38.777 289.756 38.2529C290.572 37.7288 291.531 37.4668 292.631 37.4668ZM292.609 38.9941C291.613 38.9941 290.819 39.3198 290.228 39.9712C289.637 40.6226 289.285 41.5322 289.172 42.7002H295.686C295.679 41.9665 295.562 41.3226 295.338 40.7686C295.121 40.207 294.788 39.7728 294.338 39.4658C293.889 39.1514 293.313 38.9941 292.609 38.9941ZM305.187 50.2246C303.63 50.2246 302.394 49.693 301.481 48.6299C300.575 47.5667 300.122 45.987 300.122 43.8906C300.122 41.7718 300.586 40.1733 301.515 39.0952C302.443 38.0096 303.678 37.4668 305.221 37.4668C305.872 37.4668 306.441 37.5529 306.928 37.7251C307.414 37.8973 307.834 38.1294 308.186 38.4214C308.537 38.7059 308.833 39.0316 309.073 39.3984H309.208C309.178 39.1663 309.148 38.8481 309.118 38.4438C309.088 38.0396 309.073 37.7101 309.073 37.4556V32.5254H310.937V50H309.432L309.151 48.248H309.073C308.841 48.6149 308.545 48.9481 308.186 49.2476C307.834 49.547 307.411 49.7866 306.917 49.9663C306.43 50.1385 305.853 50.2246 305.187 50.2246ZM305.479 48.6748C306.797 48.6748 307.729 48.3005 308.275 47.5518C308.822 46.8031 309.095 45.6912 309.095 44.2163V43.8794C309.095 42.3146 308.833 41.113 308.309 40.2744C307.792 39.4359 306.849 39.0166 305.479 39.0166C304.333 39.0166 303.476 39.4583 302.907 40.3418C302.338 41.2178 302.054 42.4157 302.054 43.9355C302.054 45.4479 302.334 46.6159 302.896 47.4395C303.465 48.263 304.326 48.6748 305.479 48.6748Z" fill="white"/>
</g>
<defs>
<filter id="filter0_d_748_4431" x="0" y="0" width="334" height="82" filterUnits="userSpaceOnUse" color-interpolation-filters="sRGB">
<feFlood flood-opacity="0" result="BackgroundImageFix"/>
<feColorMatrix in="SourceAlpha" type="matrix" values="0 0 0 0 0 0 0 0 0 0 0 0 0 0 0 0 0 0 127 0" result="hardAlpha"/>
<feOffset/>
<feGaussianBlur stdDeviation="2"/>
<feComposite in2="hardAlpha" operator="out"/>
<feColorMatrix type="matrix" values="0 0 0 0 0 0 0 0 0 0 0 0 0 0 0 0 0 0 0.15 0"/>
<feBlend mode="normal" in2="BackgroundImageFix" result="effect1_dropShadow_748_4431"/>
<feBlend mode="normal" in="SourceGraphic" in2="effect1_dropShadow_748_4431" result="shape"/>
</filter>
</defs>
</svg>
