<svg width="197" height="53" viewBox="0 0 197 53" fill="none" xmlns="http://www.w3.org/2000/svg">
<rect x="0.5" y="0.5" width="196" height="52" rx="9.5" fill="#4589FF"/>
<path d="M25.0825 35.5H22.8813L13.9307 21.709H13.8408C13.8633 22.0758 13.8895 22.4951 13.9194 22.9668C13.9494 23.431 13.9718 23.9289 13.9868 24.4604C14.0093 24.9845 14.0205 25.5199 14.0205 26.0664V35.5H12.2461V19.0811H14.436L23.353 32.8271H23.4316C23.4167 32.5651 23.3979 32.1945 23.3755 31.7153C23.353 31.2287 23.3306 30.7083 23.3081 30.1543C23.2931 29.5928 23.2856 29.0724 23.2856 28.5933V19.0811H25.0825V35.5ZM34.022 22.9668C35.0701 22.9668 35.9686 23.1989 36.7173 23.6631C37.466 24.1273 38.0387 24.7786 38.4355 25.6172C38.8324 26.4482 39.0308 27.4215 39.0308 28.5371V29.6938H30.5293C30.5518 31.1388 30.9111 32.2394 31.6074 32.9956C32.3037 33.7518 33.2845 34.1299 34.5498 34.1299C35.3285 34.1299 36.0173 34.0588 36.6162 33.9165C37.2152 33.7743 37.8366 33.5646 38.4805 33.2876V34.9272C37.859 35.2043 37.2414 35.4064 36.6274 35.5337C36.021 35.661 35.3022 35.7246 34.4712 35.7246C33.2882 35.7246 32.255 35.485 31.3716 35.0059C30.4956 34.5192 29.8143 33.8079 29.3276 32.8721C28.841 31.9362 28.5977 30.7907 28.5977 29.4355C28.5977 28.1104 28.8185 26.9648 29.2603 25.999C29.7095 25.0257 30.3384 24.277 31.147 23.7529C31.9631 23.2288 32.9214 22.9668 34.022 22.9668ZM33.9995 24.4941C33.0037 24.4941 32.2101 24.8198 31.6187 25.4712C31.0272 26.1226 30.6753 27.0322 30.563 28.2002H37.0767C37.0692 27.4665 36.9531 26.8226 36.7285 26.2686C36.5114 25.707 36.1782 25.2728 35.729 24.9658C35.2798 24.6514 34.7033 24.4941 33.9995 24.4941ZM52.2153 35.4775L50.0254 28.3125C49.9281 28.0055 49.8345 27.7061 49.7446 27.4141C49.6623 27.1146 49.5837 26.8301 49.5088 26.5605C49.4414 26.2835 49.3778 26.029 49.3179 25.7969C49.2655 25.5573 49.2205 25.3514 49.1831 25.1792H49.1045C49.0745 25.3514 49.0334 25.5573 48.981 25.7969C48.9285 26.029 48.8649 26.2835 48.79 26.5605C48.7227 26.8376 48.6478 27.1296 48.5654 27.4365C48.4831 27.736 48.3895 28.0392 48.2847 28.3462L45.9937 35.4775H43.8936L40.502 23.1689H42.4336L44.208 29.9634C44.3278 30.4126 44.4401 30.8581 44.5449 31.2998C44.6572 31.734 44.7508 32.1458 44.8257 32.5352C44.908 32.917 44.9679 33.2502 45.0054 33.5347H45.0952C45.1401 33.3475 45.1888 33.1229 45.2412 32.8608C45.3011 32.5988 45.3647 32.3218 45.4321 32.0298C45.507 31.7303 45.5856 31.4346 45.668 31.1426C45.7503 30.8431 45.8327 30.5623 45.915 30.3003L48.1836 23.1689H50.1938L52.3838 30.2891C52.4961 30.6484 52.6047 31.0228 52.7095 31.4121C52.8218 31.8014 52.9229 32.1795 53.0127 32.5464C53.1025 32.9058 53.1662 33.2277 53.2036 33.5122H53.2935C53.3234 33.2576 53.3796 32.9432 53.4619 32.5688C53.5443 32.1945 53.6379 31.7827 53.7427 31.3335C53.855 30.8843 53.971 30.4276 54.0908 29.9634L55.8877 23.1689H57.7856L54.3828 35.4775H52.2153ZM70.9365 35.7246C69.8285 35.7246 68.8514 35.4963 68.0054 35.0396C67.1593 34.5828 66.5005 33.8866 66.0288 32.9507C65.5571 32.0148 65.3213 30.8356 65.3213 29.4131C65.3213 27.9232 65.5684 26.7065 66.0625 25.7632C66.5641 24.8123 67.2529 24.1086 68.1289 23.6519C69.0049 23.1951 70.0007 22.9668 71.1162 22.9668C71.7301 22.9668 72.3216 23.0304 72.8906 23.1577C73.4671 23.2775 73.9388 23.431 74.3057 23.6182L73.7441 25.1792C73.3698 25.0295 72.9355 24.8947 72.4414 24.7749C71.9548 24.6551 71.498 24.5952 71.0713 24.5952C70.2178 24.5952 69.5065 24.7786 68.9375 25.1455C68.376 25.5124 67.953 26.0514 67.6685 26.7627C67.3914 27.474 67.2529 28.3499 67.2529 29.3906C67.2529 30.3864 67.3877 31.2362 67.6572 31.9399C67.9342 32.6437 68.3423 33.1828 68.8813 33.5571C69.4279 33.924 70.1092 34.1074 70.9253 34.1074C71.5767 34.1074 72.1644 34.04 72.6885 33.9053C73.2126 33.763 73.688 33.5983 74.1147 33.4111V35.0732C73.703 35.2829 73.2425 35.4438 72.7334 35.5562C72.2318 35.6685 71.6328 35.7246 70.9365 35.7246ZM87.6475 29.3232C87.6475 30.334 87.5164 31.2362 87.2544 32.0298C86.9924 32.8234 86.6143 33.4935 86.1201 34.04C85.626 34.5866 85.027 35.0059 84.3232 35.2979C83.627 35.5824 82.8371 35.7246 81.9536 35.7246C81.13 35.7246 80.3739 35.5824 79.6851 35.2979C79.0037 35.0059 78.4123 34.5866 77.9106 34.04C77.4165 33.4935 77.0309 32.8234 76.7539 32.0298C76.4844 31.2362 76.3496 30.334 76.3496 29.3232C76.3496 27.9756 76.578 26.8301 77.0347 25.8867C77.4914 24.9359 78.1427 24.2134 78.9888 23.7192C79.8423 23.2176 80.8568 22.9668 82.0322 22.9668C83.1553 22.9668 84.1361 23.2176 84.9746 23.7192C85.8206 24.2209 86.4757 24.9471 86.9399 25.8979C87.4116 26.8413 87.6475 27.9831 87.6475 29.3232ZM78.2812 29.3232C78.2812 30.3115 78.4123 31.1688 78.6743 31.895C78.9364 32.6213 79.3407 33.1828 79.8872 33.5796C80.4338 33.9764 81.1375 34.1748 81.9985 34.1748C82.8521 34.1748 83.5521 33.9764 84.0986 33.5796C84.6527 33.1828 85.0607 32.6213 85.3228 31.895C85.5848 31.1688 85.7158 30.3115 85.7158 29.3232C85.7158 28.3424 85.5848 27.4964 85.3228 26.7852C85.0607 26.0664 84.6564 25.5124 84.1099 25.123C83.5633 24.7337 82.8558 24.5391 81.9873 24.5391C80.707 24.5391 79.7674 24.9621 79.1685 25.8081C78.577 26.6541 78.2812 27.8258 78.2812 29.3232ZM96.6992 22.9668C98.1592 22.9668 99.2635 23.3262 100.012 24.0449C100.761 24.7562 101.135 25.9017 101.135 27.4814V35.5H99.2935V27.605C99.2935 26.5793 99.0576 25.8118 98.5859 25.3027C98.1217 24.7936 97.4067 24.5391 96.4409 24.5391C95.0783 24.5391 94.12 24.9246 93.5659 25.6958C93.0119 26.467 92.7349 27.5863 92.7349 29.0537V35.5H90.8706V23.1914H92.3755L92.6562 24.9658H92.7573C93.0194 24.5316 93.3525 24.1685 93.7568 23.8765C94.1611 23.577 94.6141 23.3524 95.1157 23.2026C95.6174 23.0454 96.1452 22.9668 96.6992 22.9668ZM108.952 34.1973C109.259 34.1973 109.573 34.1711 109.895 34.1187C110.217 34.0662 110.479 34.0026 110.681 33.9277V35.3765C110.464 35.4738 110.161 35.5562 109.771 35.6235C109.39 35.6909 109.015 35.7246 108.648 35.7246C107.997 35.7246 107.406 35.6123 106.874 35.3877C106.342 35.1556 105.916 34.7663 105.594 34.2197C105.279 33.6732 105.122 32.917 105.122 31.9512V24.6514H103.37V23.7417L105.133 23.0117L105.875 20.3389H106.998V23.1914H110.603V24.6514H106.998V31.895C106.998 32.6662 107.174 33.2427 107.525 33.6245C107.885 34.0063 108.36 34.1973 108.952 34.1973ZM117.779 22.9893C119.246 22.9893 120.336 23.3187 121.047 23.9775C121.758 24.6364 122.114 25.6883 122.114 27.1333V35.5H120.755L120.396 33.6807H120.306C119.961 34.1299 119.602 34.508 119.228 34.8149C118.853 35.1144 118.419 35.3428 117.925 35.5C117.438 35.6497 116.839 35.7246 116.128 35.7246C115.379 35.7246 114.713 35.5936 114.129 35.3315C113.552 35.0695 113.096 34.6727 112.759 34.1411C112.429 33.6095 112.265 32.9357 112.265 32.1196C112.265 30.8918 112.751 29.9484 113.725 29.2896C114.698 28.6307 116.18 28.2713 118.172 28.2114L120.294 28.1216V27.3691C120.294 26.306 120.066 25.561 119.609 25.1343C119.153 24.7075 118.509 24.4941 117.678 24.4941C117.034 24.4941 116.42 24.5877 115.836 24.7749C115.252 24.9621 114.698 25.1829 114.174 25.4375L113.601 24.0225C114.155 23.738 114.792 23.4946 115.51 23.2925C116.229 23.0903 116.985 22.9893 117.779 22.9893ZM120.272 29.4355L118.396 29.5142C116.862 29.5741 115.78 29.8249 115.151 30.2666C114.522 30.7083 114.208 31.3335 114.208 32.1421C114.208 32.8459 114.421 33.3662 114.848 33.7031C115.274 34.04 115.84 34.2085 116.543 34.2085C117.637 34.2085 118.531 33.9053 119.228 33.2988C119.924 32.6924 120.272 31.7827 120.272 30.5698V29.4355ZM130.885 35.7246C129.777 35.7246 128.8 35.4963 127.954 35.0396C127.108 34.5828 126.449 33.8866 125.977 32.9507C125.505 32.0148 125.27 30.8356 125.27 29.4131C125.27 27.9232 125.517 26.7065 126.011 25.7632C126.512 24.8123 127.201 24.1086 128.077 23.6519C128.953 23.1951 129.949 22.9668 131.064 22.9668C131.678 22.9668 132.27 23.0304 132.839 23.1577C133.415 23.2775 133.887 23.431 134.254 23.6182L133.692 25.1792C133.318 25.0295 132.884 24.8947 132.39 24.7749C131.903 24.6551 131.446 24.5952 131.02 24.5952C130.166 24.5952 129.455 24.7786 128.886 25.1455C128.324 25.5124 127.901 26.0514 127.617 26.7627C127.34 27.474 127.201 28.3499 127.201 29.3906C127.201 30.3864 127.336 31.2362 127.605 31.9399C127.882 32.6437 128.291 33.1828 128.83 33.5571C129.376 33.924 130.057 34.1074 130.874 34.1074C131.525 34.1074 132.113 34.04 132.637 33.9053C133.161 33.763 133.636 33.5983 134.063 33.4111V35.0732C133.651 35.2829 133.191 35.4438 132.682 35.5562C132.18 35.6685 131.581 35.7246 130.885 35.7246ZM140.958 34.1973C141.265 34.1973 141.58 34.1711 141.902 34.1187C142.224 34.0662 142.486 34.0026 142.688 33.9277V35.3765C142.471 35.4738 142.168 35.5562 141.778 35.6235C141.396 35.6909 141.022 35.7246 140.655 35.7246C140.004 35.7246 139.412 35.6123 138.881 35.3877C138.349 35.1556 137.923 34.7663 137.601 34.2197C137.286 33.6732 137.129 32.917 137.129 31.9512V24.6514H135.377V23.7417L137.14 23.0117L137.881 20.3389H139.004V23.1914H142.609V24.6514H139.004V31.895C139.004 32.6662 139.18 33.2427 139.532 33.6245C139.892 34.0063 140.367 34.1973 140.958 34.1973Z" fill="white"/>
<path d="M166.748 27.8502C165.145 27.8502 163.579 27.3751 162.247 26.4848C160.914 25.5946 159.876 24.3293 159.263 22.8489C158.65 21.3686 158.489 19.7396 158.802 18.168C159.114 16.5965 159.886 15.1529 161.019 14.0199C162.152 12.8869 163.596 12.1152 165.167 11.8026C166.739 11.49 168.368 11.6505 169.848 12.2637C171.328 12.8769 172.594 13.9153 173.484 15.2476C174.374 16.5799 174.849 18.1462 174.849 19.7486C174.844 21.8958 173.989 23.9537 172.471 25.4721C170.953 26.9904 168.895 27.8455 166.748 27.8502ZM166.748 13.4473C165.501 13.4473 164.283 13.8169 163.247 14.5093C162.211 15.2017 161.403 16.1858 160.926 17.3372C160.449 18.4886 160.324 19.7556 160.567 20.9779C160.811 22.2002 161.411 23.323 162.292 24.2043C163.173 25.0855 164.296 25.6856 165.518 25.9288C166.741 26.1719 168.008 26.0471 169.159 25.5702C170.31 25.0933 171.295 24.2856 171.987 23.2494C172.679 22.2131 173.049 20.9949 173.049 19.7486C173.049 18.0774 172.385 16.4746 171.203 15.2929C170.022 14.1112 168.419 13.4473 166.748 13.4473Z" fill="white"/>
<path d="M173.048 41.3529H154L154.162 40.3087C154.559 37.1625 156.074 34.2638 158.43 32.1419C160.787 30.02 163.828 28.8162 166.999 28.7504C168.638 28.7361 170.265 29.0418 171.788 29.6506C171.901 29.6935 172.004 29.7589 172.092 29.8427C172.179 29.9266 172.249 30.0273 172.296 30.1387C172.344 30.2501 172.369 30.3699 172.369 30.4911C172.369 30.6122 172.345 30.7322 172.297 30.8437C172.25 30.9552 172.181 31.0561 172.094 31.1402C172.006 31.2243 171.903 31.29 171.79 31.3332C171.677 31.3765 171.556 31.3964 171.435 31.3919C171.314 31.3874 171.195 31.3585 171.085 31.3069C169.791 30.7654 168.402 30.484 166.999 30.4788C164.447 30.5424 161.992 31.466 160.031 33.1C158.07 34.7339 156.719 36.9823 156.196 39.4806H173.102C173.341 39.4806 173.57 39.5754 173.738 39.7442C173.907 39.913 174.002 40.142 174.002 40.3807C174.002 40.6195 173.907 40.8484 173.738 41.0173C173.57 41.1861 173.341 41.2809 173.102 41.2809L173.048 41.3529Z" fill="white"/>
<path d="M179.798 26.9496C178.408 26.9506 177.048 27.354 175.882 28.1111C174.716 28.8683 173.794 29.9468 173.227 31.2164C172.807 32.1374 172.592 33.1387 172.597 34.151C172.597 35.5753 173.019 36.9677 173.811 38.1519C174.602 39.3362 175.727 40.2592 177.043 40.8043C178.358 41.3493 179.806 41.492 181.203 41.2141C182.6 40.9362 183.883 40.2503 184.891 39.2432C185.898 38.2361 186.584 36.9529 186.862 35.556C187.139 34.159 186.997 32.711 186.452 31.3952C185.907 30.0793 184.984 28.9546 183.799 28.1632C182.615 27.3719 181.223 26.9496 179.798 26.9496ZM183.399 35.1232H180.771V37.7517C180.771 38.0096 180.668 38.2569 180.486 38.4392C180.304 38.6215 180.056 38.7239 179.798 38.7239C179.541 38.7239 179.293 38.6215 179.111 38.4392C178.929 38.2569 178.826 38.0096 178.826 37.7517V35.0512H176.198C176.07 35.0512 175.944 35.0261 175.826 34.9772C175.708 34.9283 175.601 34.8567 175.51 34.7665C175.42 34.6762 175.348 34.569 175.3 34.4511C175.251 34.3331 175.226 34.2067 175.226 34.079C175.225 33.9055 175.271 33.735 175.36 33.5859C175.449 33.4368 175.577 33.3147 175.73 33.2328C175.869 33.1429 176.032 33.0989 176.198 33.1068H178.826V30.5503C178.826 30.2925 178.929 30.0452 179.111 29.8629C179.293 29.6805 179.541 29.5781 179.798 29.5781C180.056 29.5781 180.304 29.6805 180.486 29.8629C180.668 30.0452 180.771 30.2925 180.771 30.5503V33.2508H183.399C183.657 33.2508 183.904 33.3533 184.087 33.5356C184.269 33.7179 184.371 33.9652 184.371 34.223C184.371 34.4809 184.269 34.7282 184.087 34.9105C183.904 35.0928 183.657 35.1952 183.399 35.1952V35.1232Z" fill="white"/>
<rect x="0.5" y="0.5" width="196" height="52" rx="9.5" stroke="#4589FF"/>
</svg>
