<svg width="56" height="67" viewBox="0 0 56 67" fill="none" xmlns="http://www.w3.org/2000/svg">
<path d="M39.9329 0H27.7229V13.8957H39.9329V0Z" fill="white"/>
<path d="M27.7229 25.1971H39.9329V44.7948C39.9887 49.5105 38.632 54.1363 36.0351 58.0839C33.471 61.9195 28.5213 66.4829 19.3638 66.4829C9.38918 66.4829 3.57535 61.8168 0.438324 59.2598L8.14 49.8622C11.2019 52.3353 14.1511 54.3697 19.4108 54.3697C23.3931 54.3697 24.9804 52.7645 25.9102 51.3647C27.1743 49.4204 27.8281 47.1465 27.7887 44.8321L27.7229 25.1971Z" fill="white"/>
<path d="M21.4959 16.4248H9.28589V28.5567H21.4959V16.4248Z" fill="white"/>
<path d="M46.329 60.7903C46.329 63.3753 45.0047 64.7658 43.1544 64.7658C41.3042 64.7658 40.0926 63.114 40.0926 60.9209C40.0926 58.7279 41.3417 56.9921 43.2578 56.9921C45.1738 56.9921 46.329 58.6999 46.329 60.7903ZM41.5108 60.8929C41.5108 62.4514 42.1401 63.5993 43.2202 63.5993C44.3003 63.5993 44.9108 62.3861 44.9108 60.7996C44.9108 59.4091 44.3473 58.1026 43.2202 58.1026C42.0931 58.1026 41.5108 59.3625 41.5108 60.8929Z" fill="white"/>
<path d="M48.7522 57.104V64.6445H47.3997V57.104H48.7522Z" fill="white"/>
<path d="M50.2175 64.6445V57.104H51.7202L53.3357 60.2116C53.7516 61.0242 54.1216 61.8592 54.444 62.7127C54.3595 61.7795 54.3219 60.7063 54.3219 59.5117V57.104H55.5617V64.6445H54.1622L52.528 61.4715C52.0953 60.638 51.7096 59.7812 51.3727 58.9051C51.3727 59.8384 51.4385 60.8929 51.4385 62.1901V64.6351L50.2175 64.6445Z" fill="white"/>
</svg>
