<svg width="164" height="47" viewBox="0 0 164 47" fill="none" xmlns="http://www.w3.org/2000/svg">
<rect x="0.5" y="0.00317383" width="163" height="46" rx="10" fill="#005DFF"/>
<circle cx="23.5" cy="23.0032" r="9" stroke="white" stroke-width="2"/>
<circle cx="23.5" cy="19.0032" r="1" fill="white"/>
<path d="M23.5 22.0032V28.0032" stroke="white" stroke-width="2" stroke-linecap="round"/>
<path d="M59.9375 29.5032V18.0813H62.3594V27.5032H66.9922V29.5032H59.9375ZM72.3984 20.6047C73.2057 20.6047 73.901 20.761 74.4844 21.0735C75.0677 21.3808 75.5182 21.8287 75.8359 22.4172C76.1536 23.0058 76.3125 23.7245 76.3125 24.5735V25.7297H70.6797C70.7057 26.4016 70.9062 26.9303 71.2812 27.3157C71.6615 27.6959 72.1875 27.886 72.8594 27.886C73.4167 27.886 73.9271 27.8287 74.3906 27.7141C74.8542 27.5995 75.3307 27.4277 75.8203 27.1985V29.0422C75.388 29.2558 74.9349 29.412 74.4609 29.511C73.9922 29.6099 73.4219 29.6594 72.75 29.6594C71.875 29.6594 71.099 29.498 70.4219 29.175C69.75 28.8521 69.2214 28.3599 68.8359 27.6985C68.4557 27.037 68.2656 26.2037 68.2656 25.1985C68.2656 24.1777 68.4375 23.3287 68.7812 22.6516C69.1302 21.9693 69.6146 21.4589 70.2344 21.1204C70.8542 20.7766 71.5755 20.6047 72.3984 20.6047ZM72.4141 22.3C71.9505 22.3 71.5651 22.4485 71.2578 22.7454C70.9557 23.0422 70.7812 23.5084 70.7344 24.1438H74.0781C74.0729 23.7896 74.0078 23.4745 73.8828 23.1985C73.763 22.9224 73.5807 22.7037 73.3359 22.5422C73.0964 22.3808 72.7891 22.3 72.4141 22.3ZM80.8047 33.3469C79.5859 33.3469 78.6536 33.1334 78.0078 32.7063C77.3672 32.2844 77.0469 31.6907 77.0469 30.925C77.0469 30.399 77.2109 29.9589 77.5391 29.6047C77.8672 29.2506 78.349 28.998 78.9844 28.8469C78.7396 28.7428 78.526 28.5735 78.3438 28.3391C78.1615 28.0995 78.0703 27.8469 78.0703 27.5813C78.0703 27.248 78.1667 26.9719 78.3594 26.7532C78.5521 26.5292 78.8307 26.3105 79.1953 26.0969C78.737 25.899 78.3724 25.5813 78.1016 25.1438C77.8359 24.7063 77.7031 24.1907 77.7031 23.5969C77.7031 22.9615 77.8411 22.4224 78.1172 21.9797C78.3984 21.5318 78.8047 21.1907 79.3359 20.9563C79.8724 20.7219 80.5234 20.6047 81.2891 20.6047C81.4505 20.6047 81.638 20.6152 81.8516 20.636C82.0651 20.6568 82.2604 20.6803 82.4375 20.7063C82.6198 20.7323 82.7422 20.7532 82.8047 20.7688H85.8516V21.9797L84.4844 22.3313C84.6094 22.524 84.7031 22.7297 84.7656 22.9485C84.8281 23.1672 84.8594 23.399 84.8594 23.6438C84.8594 24.5813 84.5312 25.3131 83.875 25.8391C83.224 26.3599 82.3177 26.6204 81.1562 26.6204C80.8802 26.6047 80.6198 26.5839 80.375 26.5579C80.2552 26.6516 80.1641 26.7506 80.1016 26.8547C80.0391 26.9589 80.0078 27.0683 80.0078 27.1829C80.0078 27.2974 80.0547 27.3938 80.1484 27.4719C80.2474 27.5448 80.3932 27.6021 80.5859 27.6438C80.7839 27.6803 81.0286 27.6985 81.3203 27.6985H82.8047C83.763 27.6985 84.4922 27.9042 84.9922 28.3157C85.4974 28.7271 85.75 29.3313 85.75 30.1282C85.75 31.149 85.3229 31.9407 84.4688 32.5032C83.6198 33.0657 82.3984 33.3469 80.8047 33.3469ZM80.9062 31.7922C81.474 31.7922 81.9609 31.7375 82.3672 31.6282C82.7786 31.524 83.0938 31.373 83.3125 31.175C83.5312 30.9823 83.6406 30.7506 83.6406 30.4797C83.6406 30.261 83.5755 30.0865 83.4453 29.9563C83.3203 29.8313 83.1276 29.7428 82.8672 29.6907C82.612 29.6386 82.2839 29.6125 81.8828 29.6125H80.6484C80.3568 29.6125 80.0938 29.6594 79.8594 29.7532C79.6302 29.8469 79.4479 29.9771 79.3125 30.1438C79.1771 30.3157 79.1094 30.5136 79.1094 30.7375C79.1094 31.0657 79.2656 31.3235 79.5781 31.511C79.8958 31.6985 80.3385 31.7922 80.9062 31.7922ZM81.2891 25.1672C81.737 25.1672 82.0651 25.0292 82.2734 24.7532C82.4818 24.4771 82.5859 24.1021 82.5859 23.6282C82.5859 23.1021 82.4766 22.7089 82.2578 22.4485C82.0443 22.1829 81.7214 22.05 81.2891 22.05C80.8516 22.05 80.5234 22.1829 80.3047 22.4485C80.0859 22.7089 79.9766 23.1021 79.9766 23.6282C79.9766 24.1021 80.0833 24.4771 80.2969 24.7532C80.5156 25.0292 80.8464 25.1672 81.2891 25.1672ZM90.875 20.5891C92.0469 20.5891 92.9453 20.8443 93.5703 21.3547C94.1953 21.8652 94.5078 22.6412 94.5078 23.6829V29.5032H92.8438L92.3828 28.3157H92.3203C92.0703 28.6282 91.8151 28.8834 91.5547 29.0813C91.2943 29.2792 90.9948 29.425 90.6562 29.5188C90.3177 29.6125 89.9062 29.6594 89.4219 29.6594C88.9062 29.6594 88.4427 29.5605 88.0312 29.3625C87.625 29.1646 87.3047 28.8625 87.0703 28.4563C86.8359 28.0448 86.7188 27.524 86.7188 26.8938C86.7188 25.9667 87.0443 25.2844 87.6953 24.8469C88.3464 24.4042 89.3229 24.1594 90.625 24.1125L92.1406 24.0657V23.6829C92.1406 23.2245 92.0208 22.8886 91.7812 22.675C91.5417 22.4615 91.2083 22.3547 90.7812 22.3547C90.3594 22.3547 89.9453 22.4146 89.5391 22.5344C89.1328 22.6542 88.7266 22.8053 88.3203 22.9875L87.5312 21.3782C87.9948 21.1334 88.513 20.9407 89.0859 20.8C89.6641 20.6594 90.2604 20.5891 90.875 20.5891ZM92.1406 25.4563L91.2188 25.4875C90.4479 25.5084 89.9115 25.6464 89.6094 25.9016C89.3125 26.1568 89.1641 26.4928 89.1641 26.9094C89.1641 27.274 89.2708 27.5344 89.4844 27.6907C89.6979 27.8417 89.9766 27.9172 90.3203 27.9172C90.8307 27.9172 91.2604 27.7662 91.6094 27.4641C91.9635 27.162 92.1406 26.7323 92.1406 26.175V25.4563ZM99.3516 29.5032H96.9688V17.3469H99.3516V29.5032ZM110.977 20.6047C111.909 20.6047 112.659 20.8599 113.227 21.3704C113.794 21.8756 114.078 22.6881 114.078 23.8079V29.5032H111.695V24.4016C111.695 23.7766 111.581 23.3053 111.352 22.9875C111.128 22.6698 110.773 22.511 110.289 22.511C109.56 22.511 109.062 22.7584 108.797 23.2532C108.531 23.748 108.398 24.4615 108.398 25.3938V29.5032H106.016V20.7688H107.836L108.156 21.886H108.289C108.477 21.5839 108.708 21.3391 108.984 21.1516C109.266 20.9641 109.576 20.8261 109.914 20.7375C110.258 20.649 110.612 20.6047 110.977 20.6047ZM124.469 25.1204C124.469 25.8495 124.37 26.4954 124.172 27.0579C123.979 27.6204 123.695 28.0969 123.32 28.4875C122.951 28.873 122.503 29.1646 121.977 29.3625C121.456 29.5605 120.867 29.6594 120.211 29.6594C119.596 29.6594 119.031 29.5605 118.516 29.3625C118.005 29.1646 117.56 28.873 117.18 28.4875C116.805 28.0969 116.513 27.6204 116.305 27.0579C116.102 26.4954 116 25.8495 116 25.1204C116 24.1516 116.172 23.3313 116.516 22.6594C116.859 21.9875 117.349 21.4771 117.984 21.1282C118.62 20.7792 119.378 20.6047 120.258 20.6047C121.076 20.6047 121.799 20.7792 122.43 21.1282C123.065 21.4771 123.562 21.9875 123.922 22.6594C124.286 23.3313 124.469 24.1516 124.469 25.1204ZM118.43 25.1204C118.43 25.6933 118.492 26.175 118.617 26.5657C118.742 26.9563 118.938 27.2506 119.203 27.4485C119.469 27.6464 119.815 27.7454 120.242 27.7454C120.664 27.7454 121.005 27.6464 121.266 27.4485C121.531 27.2506 121.724 26.9563 121.844 26.5657C121.969 26.175 122.031 25.6933 122.031 25.1204C122.031 24.5422 121.969 24.0631 121.844 23.6829C121.724 23.2974 121.531 23.0084 121.266 22.8157C121 22.623 120.654 22.5266 120.227 22.5266C119.596 22.5266 119.138 22.7428 118.852 23.175C118.57 23.6073 118.43 24.2558 118.43 25.1204ZM130.117 27.761C130.378 27.761 130.63 27.7349 130.875 27.6829C131.125 27.6308 131.372 27.5657 131.617 27.4875V29.261C131.362 29.3756 131.044 29.4693 130.664 29.5422C130.289 29.6204 129.878 29.6594 129.43 29.6594C128.909 29.6594 128.44 29.5761 128.023 29.4094C127.612 29.2375 127.286 28.9433 127.047 28.5266C126.812 28.1047 126.695 27.5188 126.695 26.7688V22.5579H125.555V21.55L126.867 20.7532L127.555 18.9094H129.078V20.7688H131.523V22.5579H129.078V26.7688C129.078 27.1021 129.172 27.3521 129.359 27.5188C129.552 27.6803 129.805 27.761 130.117 27.761ZM135.773 20.7688V29.5032H133.391V20.7688H135.773ZM134.586 17.3469C134.94 17.3469 135.245 17.4303 135.5 17.5969C135.755 17.7584 135.883 18.0631 135.883 18.511C135.883 18.9537 135.755 19.261 135.5 19.4329C135.245 19.5995 134.94 19.6829 134.586 19.6829C134.227 19.6829 133.919 19.5995 133.664 19.4329C133.414 19.261 133.289 18.9537 133.289 18.511C133.289 18.0631 133.414 17.7584 133.664 17.5969C133.919 17.4303 134.227 17.3469 134.586 17.3469ZM141.828 29.6594C140.964 29.6594 140.227 29.5032 139.617 29.1907C139.008 28.873 138.544 28.3834 138.227 27.7219C137.909 27.0605 137.75 26.2141 137.75 25.1829C137.75 24.1152 137.93 23.2454 138.289 22.5735C138.654 21.8964 139.156 21.399 139.797 21.0813C140.443 20.7636 141.19 20.6047 142.039 20.6047C142.643 20.6047 143.164 20.6646 143.602 20.7844C144.044 20.899 144.43 21.037 144.758 21.1985L144.055 23.0422C143.68 22.8912 143.331 22.7688 143.008 22.675C142.685 22.5761 142.362 22.5266 142.039 22.5266C141.622 22.5266 141.276 22.6256 141 22.8235C140.724 23.0162 140.518 23.3079 140.383 23.6985C140.247 24.0891 140.18 24.5787 140.18 25.1672C140.18 25.7454 140.253 26.2245 140.398 26.6047C140.544 26.9849 140.755 27.2688 141.031 27.4563C141.307 27.6386 141.643 27.7297 142.039 27.7297C142.534 27.7297 142.974 27.6646 143.359 27.5344C143.745 27.399 144.12 27.2115 144.484 26.9719V29.011C144.12 29.2402 143.737 29.4042 143.336 29.5032C142.94 29.6073 142.438 29.6594 141.828 29.6594ZM150.117 20.6047C150.924 20.6047 151.62 20.761 152.203 21.0735C152.786 21.3808 153.237 21.8287 153.555 22.4172C153.872 23.0058 154.031 23.7245 154.031 24.5735V25.7297H148.398C148.424 26.4016 148.625 26.9303 149 27.3157C149.38 27.6959 149.906 27.886 150.578 27.886C151.135 27.886 151.646 27.8287 152.109 27.7141C152.573 27.5995 153.049 27.4277 153.539 27.1985V29.0422C153.107 29.2558 152.654 29.412 152.18 29.511C151.711 29.6099 151.141 29.6594 150.469 29.6594C149.594 29.6594 148.818 29.498 148.141 29.175C147.469 28.8521 146.94 28.3599 146.555 27.6985C146.174 27.037 145.984 26.2037 145.984 25.1985C145.984 24.1777 146.156 23.3287 146.5 22.6516C146.849 21.9693 147.333 21.4589 147.953 21.1204C148.573 20.7766 149.294 20.6047 150.117 20.6047ZM150.133 22.3C149.669 22.3 149.284 22.4485 148.977 22.7454C148.674 23.0422 148.5 23.5084 148.453 24.1438H151.797C151.792 23.7896 151.727 23.4745 151.602 23.1985C151.482 22.9224 151.299 22.7037 151.055 22.5422C150.815 22.3808 150.508 22.3 150.133 22.3Z" fill="white"/>
</svg>
