<svg width="160" height="47" viewBox="0 0 160 47" fill="none" xmlns="http://www.w3.org/2000/svg">
<circle cx="23" cy="23.0032" r="9" stroke="#42526E" stroke-width="2"/>
<circle cx="23" cy="19.0032" r="1" fill="#42526E"/>
<path d="M23 22.0032V28.0032" stroke="#42526E" stroke-width="2" stroke-linecap="round"/>
<path d="M59.5625 30.5032V19.0813H60.8906V29.3157H65.9609V30.5032H59.5625ZM71.0234 21.7844C71.7526 21.7844 72.3776 21.9459 72.8984 22.2688C73.4193 22.5917 73.8177 23.0448 74.0938 23.6282C74.3698 24.2063 74.5078 24.8834 74.5078 25.6594V26.4641H68.5938C68.6094 27.4693 68.8594 28.2349 69.3438 28.761C69.8281 29.287 70.5104 29.55 71.3906 29.55C71.9323 29.55 72.4115 29.5006 72.8281 29.4016C73.2448 29.3027 73.6771 29.1568 74.125 28.9641V30.1047C73.6927 30.2974 73.263 30.4381 72.8359 30.5266C72.4141 30.6152 71.9141 30.6594 71.3359 30.6594C70.513 30.6594 69.7943 30.4928 69.1797 30.1594C68.5703 29.8209 68.0964 29.3261 67.7578 28.675C67.4193 28.024 67.25 27.2271 67.25 26.2844C67.25 25.3625 67.4036 24.5657 67.7109 23.8938C68.0234 23.2167 68.4609 22.6959 69.0234 22.3313C69.5911 21.9667 70.2578 21.7844 71.0234 21.7844ZM71.0078 22.8469C70.3151 22.8469 69.763 23.0735 69.3516 23.5266C68.9401 23.9797 68.6953 24.6125 68.6172 25.425H73.1484C73.1432 24.9146 73.0625 24.4667 72.9062 24.0813C72.7552 23.6907 72.5234 23.3886 72.2109 23.175C71.8984 22.9563 71.4974 22.8469 71.0078 22.8469ZM79.1016 34.3469C77.9766 34.3469 77.1094 34.136 76.5 33.7141C75.8906 33.2974 75.5859 32.7115 75.5859 31.9563C75.5859 31.4198 75.7552 30.9615 76.0938 30.5813C76.4375 30.2011 76.9115 29.9485 77.5156 29.8235C77.2917 29.7193 77.099 29.5631 76.9375 29.3547C76.7812 29.1464 76.7031 28.9068 76.7031 28.636C76.7031 28.3235 76.7891 28.05 76.9609 27.8157C77.138 27.5761 77.4062 27.3469 77.7656 27.1282C77.3177 26.9459 76.9531 26.6386 76.6719 26.2063C76.3958 25.7688 76.2578 25.261 76.2578 24.6829C76.2578 24.0683 76.3854 23.5448 76.6406 23.1125C76.8958 22.675 77.2656 22.3417 77.75 22.1125C78.2344 21.8834 78.8203 21.7688 79.5078 21.7688C79.6589 21.7688 79.8099 21.7766 79.9609 21.7922C80.1172 21.8027 80.2656 21.8209 80.4062 21.8469C80.5469 21.8678 80.6693 21.8938 80.7734 21.925H83.7109V22.761L82.1328 22.9563C82.2891 23.1594 82.4193 23.4042 82.5234 23.6907C82.6276 23.9771 82.6797 24.2948 82.6797 24.6438C82.6797 25.498 82.3906 26.1777 81.8125 26.6829C81.2344 27.1829 80.4401 27.4329 79.4297 27.4329C79.1901 27.4329 78.9453 27.412 78.6953 27.3704C78.4401 27.511 78.2448 27.6672 78.1094 27.8391C77.9792 28.011 77.9141 28.2089 77.9141 28.4329C77.9141 28.5995 77.9635 28.7323 78.0625 28.8313C78.1667 28.9303 78.3151 29.0032 78.5078 29.05C78.7005 29.0917 78.9323 29.1125 79.2031 29.1125H80.7109C81.6432 29.1125 82.3568 29.3079 82.8516 29.6985C83.3516 30.0891 83.6016 30.6594 83.6016 31.4094C83.6016 32.3573 83.2161 33.0839 82.4453 33.5891C81.6745 34.0943 80.5599 34.3469 79.1016 34.3469ZM79.1406 33.3313C79.849 33.3313 80.4349 33.2584 80.8984 33.1125C81.3672 32.9719 81.7161 32.7662 81.9453 32.4954C82.1797 32.2297 82.2969 31.912 82.2969 31.5422C82.2969 31.1985 82.2188 30.9381 82.0625 30.761C81.9062 30.5891 81.6771 30.4745 81.375 30.4172C81.0729 30.3547 80.7031 30.3235 80.2656 30.3235H78.7812C78.3958 30.3235 78.0599 30.3834 77.7734 30.5032C77.487 30.623 77.2656 30.8 77.1094 31.0344C76.9583 31.2688 76.8828 31.5605 76.8828 31.9094C76.8828 32.373 77.0781 32.7245 77.4688 32.9641C77.8594 33.2089 78.4167 33.3313 79.1406 33.3313ZM79.4766 26.4875C80.0964 26.4875 80.5625 26.3313 80.875 26.0188C81.1875 25.7063 81.3438 25.2506 81.3438 24.6516C81.3438 24.011 81.1849 23.5318 80.8672 23.2141C80.5495 22.8912 80.0807 22.7297 79.4609 22.7297C78.8672 22.7297 78.4089 22.8964 78.0859 23.2297C77.7682 23.5579 77.6094 24.0396 77.6094 24.675C77.6094 25.2584 77.7708 25.7063 78.0938 26.0188C78.4167 26.3313 78.8776 26.4875 79.4766 26.4875ZM88.6016 21.8C89.6224 21.8 90.3802 22.0292 90.875 22.4875C91.3698 22.9459 91.6172 23.6777 91.6172 24.6829V30.5032H90.6719L90.4219 29.2375H90.3594C90.1198 29.55 89.8698 29.8131 89.6094 30.0266C89.349 30.2349 89.0469 30.3938 88.7031 30.5032C88.3646 30.6073 87.9479 30.6594 87.4531 30.6594C86.9323 30.6594 86.4688 30.5683 86.0625 30.386C85.6615 30.2037 85.3438 29.9277 85.1094 29.5579C84.8802 29.1881 84.7656 28.7193 84.7656 28.1516C84.7656 27.2974 85.1042 26.6412 85.7812 26.1829C86.4583 25.7245 87.4896 25.4745 88.875 25.4329L90.3516 25.3704V24.8469C90.3516 24.1073 90.1927 23.5891 89.875 23.2922C89.5573 22.9954 89.1094 22.8469 88.5312 22.8469C88.0833 22.8469 87.6562 22.912 87.25 23.0422C86.8438 23.1724 86.4583 23.3261 86.0938 23.5032L85.6953 22.5188C86.0807 22.3209 86.5234 22.1516 87.0234 22.011C87.5234 21.8704 88.0495 21.8 88.6016 21.8ZM90.3359 26.2844L89.0312 26.3391C87.9635 26.3808 87.2109 26.5553 86.7734 26.8625C86.3359 27.1698 86.1172 27.6047 86.1172 28.1672C86.1172 28.6568 86.2656 29.0188 86.5625 29.2532C86.8594 29.4875 87.2526 29.6047 87.7422 29.6047C88.5026 29.6047 89.125 29.3938 89.6094 28.9719C90.0938 28.55 90.3359 27.9172 90.3359 27.0735V26.2844ZM95.5938 30.5032H94.2891V18.3469H95.5938V30.5032ZM106.547 21.7844C107.562 21.7844 108.331 22.0344 108.852 22.5344C109.372 23.0292 109.633 23.8261 109.633 24.925V30.5032H108.352V25.011C108.352 24.2974 108.188 23.7636 107.859 23.4094C107.536 23.0553 107.039 22.8782 106.367 22.8782C105.419 22.8782 104.753 23.1464 104.367 23.6829C103.982 24.2193 103.789 24.998 103.789 26.0188V30.5032H102.492V21.9407H103.539L103.734 23.175H103.805C103.987 22.873 104.219 22.6204 104.5 22.4172C104.781 22.2089 105.096 22.0527 105.445 21.9485C105.794 21.8391 106.161 21.7844 106.547 21.7844ZM119.688 26.2063C119.688 26.9094 119.596 27.537 119.414 28.0891C119.232 28.6412 118.969 29.1073 118.625 29.4875C118.281 29.8678 117.865 30.1594 117.375 30.3625C116.891 30.5605 116.341 30.6594 115.727 30.6594C115.154 30.6594 114.628 30.5605 114.148 30.3625C113.674 30.1594 113.263 29.8678 112.914 29.4875C112.57 29.1073 112.302 28.6412 112.109 28.0891C111.922 27.537 111.828 26.9094 111.828 26.2063C111.828 25.2688 111.987 24.4719 112.305 23.8157C112.622 23.1542 113.076 22.6516 113.664 22.3079C114.258 21.9589 114.964 21.7844 115.781 21.7844C116.562 21.7844 117.245 21.9589 117.828 22.3079C118.417 22.6568 118.872 23.162 119.195 23.8235C119.523 24.4797 119.688 25.274 119.688 26.2063ZM113.172 26.2063C113.172 26.8938 113.263 27.4902 113.445 27.9954C113.628 28.5006 113.909 28.8912 114.289 29.1672C114.669 29.4433 115.159 29.5813 115.758 29.5813C116.352 29.5813 116.839 29.4433 117.219 29.1672C117.604 28.8912 117.888 28.5006 118.07 27.9954C118.253 27.4902 118.344 26.8938 118.344 26.2063C118.344 25.524 118.253 24.9355 118.07 24.4407C117.888 23.9407 117.607 23.5553 117.227 23.2844C116.846 23.0136 116.354 22.8782 115.75 22.8782C114.859 22.8782 114.206 23.1724 113.789 23.761C113.378 24.3495 113.172 25.1646 113.172 26.2063ZM124.695 29.5969C124.909 29.5969 125.128 29.5787 125.352 29.5422C125.576 29.5058 125.758 29.4615 125.898 29.4094V30.4172C125.747 30.4849 125.536 30.5422 125.266 30.5891C125 30.636 124.74 30.6594 124.484 30.6594C124.031 30.6594 123.62 30.5813 123.25 30.425C122.88 30.2636 122.583 29.9928 122.359 29.6125C122.141 29.2323 122.031 28.7063 122.031 28.0344V22.9563H120.812V22.3235L122.039 21.8157L122.555 19.9563H123.336V21.9407H125.844V22.9563H123.336V27.9954C123.336 28.5318 123.458 28.9329 123.703 29.1985C123.953 29.4641 124.284 29.5969 124.695 29.5969ZM128.93 21.9407V30.5032H127.633V21.9407H128.93ZM128.297 18.7375C128.51 18.7375 128.693 18.8079 128.844 18.9485C129 19.0839 129.078 19.2974 129.078 19.5891C129.078 19.8756 129 20.0891 128.844 20.2297C128.693 20.3704 128.51 20.4407 128.297 20.4407C128.073 20.4407 127.885 20.3704 127.734 20.2297C127.589 20.0891 127.516 19.8756 127.516 19.5891C127.516 19.2974 127.589 19.0839 127.734 18.9485C127.885 18.8079 128.073 18.7375 128.297 18.7375ZM135.109 30.6594C134.339 30.6594 133.659 30.5006 133.07 30.1829C132.482 29.8652 132.023 29.3808 131.695 28.7297C131.367 28.0787 131.203 27.2584 131.203 26.2688C131.203 25.2323 131.375 24.386 131.719 23.7297C132.068 23.0683 132.547 22.5787 133.156 22.261C133.766 21.9433 134.458 21.7844 135.234 21.7844C135.661 21.7844 136.073 21.8287 136.469 21.9172C136.87 22.0006 137.198 22.1073 137.453 22.2375L137.062 23.3235C136.802 23.2193 136.5 23.1256 136.156 23.0422C135.818 22.9589 135.5 22.9172 135.203 22.9172C134.609 22.9172 134.115 23.0448 133.719 23.3C133.328 23.5553 133.034 23.9303 132.836 24.425C132.643 24.9198 132.547 25.5292 132.547 26.2532C132.547 26.9459 132.641 27.537 132.828 28.0266C133.021 28.5162 133.305 28.8912 133.68 29.1516C134.06 29.4068 134.534 29.5344 135.102 29.5344C135.555 29.5344 135.964 29.4875 136.328 29.3938C136.693 29.2948 137.023 29.1803 137.32 29.05V30.2063C137.034 30.3521 136.714 30.4641 136.359 30.5422C136.01 30.6204 135.594 30.6594 135.109 30.6594ZM142.648 21.7844C143.378 21.7844 144.003 21.9459 144.523 22.2688C145.044 22.5917 145.443 23.0448 145.719 23.6282C145.995 24.2063 146.133 24.8834 146.133 25.6594V26.4641H140.219C140.234 27.4693 140.484 28.2349 140.969 28.761C141.453 29.287 142.135 29.55 143.016 29.55C143.557 29.55 144.036 29.5006 144.453 29.4016C144.87 29.3027 145.302 29.1568 145.75 28.9641V30.1047C145.318 30.2974 144.888 30.4381 144.461 30.5266C144.039 30.6152 143.539 30.6594 142.961 30.6594C142.138 30.6594 141.419 30.4928 140.805 30.1594C140.195 29.8209 139.721 29.3261 139.383 28.675C139.044 28.024 138.875 27.2271 138.875 26.2844C138.875 25.3625 139.029 24.5657 139.336 23.8938C139.648 23.2167 140.086 22.6959 140.648 22.3313C141.216 21.9667 141.883 21.7844 142.648 21.7844ZM142.633 22.8469C141.94 22.8469 141.388 23.0735 140.977 23.5266C140.565 23.9797 140.32 24.6125 140.242 25.425H144.773C144.768 24.9146 144.688 24.4667 144.531 24.0813C144.38 23.6907 144.148 23.3886 143.836 23.175C143.523 22.9563 143.122 22.8469 142.633 22.8469Z" fill="#42526E"/>
</svg>
