<svg width="20" height="15" viewBox="0 0 20 15" fill="none" xmlns="http://www.w3.org/2000/svg">
<path d="M18.9041 14.7547C18.6695 14.7551 18.4409 14.6803 18.252 14.5412L9.99999 8.458L1.74794 14.5412C1.63209 14.6267 1.50051 14.6887 1.3607 14.7234C1.2209 14.7582 1.07562 14.7651 0.933153 14.7437C0.790685 14.7223 0.653821 14.6732 0.530376 14.599C0.40693 14.5247 0.299321 14.427 0.213692 14.3112C0.128063 14.1954 0.0660911 14.0639 0.0313145 13.9243C-0.00346214 13.7846 -0.0103624 13.6394 0.0110078 13.497C0.0541669 13.2095 0.209857 12.9509 0.443829 12.7781L9.34794 6.20761C9.53664 6.06802 9.76521 5.99268 9.99999 5.99268C10.2348 5.99268 10.4633 6.06802 10.652 6.20761L19.5562 12.7781C19.7421 12.915 19.88 13.1071 19.9501 13.327C20.0203 13.5469 20.0191 13.7833 19.9468 14.0025C19.8745 14.2216 19.7347 14.4124 19.5475 14.5475C19.3602 14.6826 19.1351 14.7551 18.9041 14.7547Z" fill="#FF3D00"/>
<path d="M18.9042 9.00568C18.6695 9.00609 18.441 8.93124 18.2521 8.79214L10 2.70898L1.74799 8.79214C1.51402 8.96495 1.22093 9.0378 0.933203 8.99468C0.645476 8.95155 0.386678 8.79597 0.213743 8.56218C0.0408069 8.32838 -0.0321009 8.03551 0.0110582 7.74799C0.0542172 7.46048 0.209908 7.20187 0.44388 7.02906L9.34799 0.458588C9.53669 0.318997 9.76526 0.243652 10 0.243652C10.2348 0.243652 10.4634 0.318997 10.6521 0.458588L19.5562 7.02906C19.7421 7.16598 19.88 7.35809 19.9502 7.57797C20.0203 7.79785 20.0192 8.03426 19.9468 8.25344C19.8745 8.47262 19.7348 8.66338 19.5475 8.79847C19.3603 8.93356 19.1351 9.00608 18.9042 9.00568Z" fill="#FF3D00"/>
</svg>
